<?xml version="1.0" encoding="UTF-8"?>
<svg version="1.1" xmlns="http://www.w3.org/2000/svg" width="1536" height="1024">
<path d="M0 0 C506.88 0 1013.76 0 1536 0 C1536 337.92 1536 675.84 1536 1024 C1029.12 1024 522.24 1024 0 1024 C0 686.08 0 348.16 0 0 Z " fill="#042851" transform="translate(0,0)"/>
<path d="M0 0 C7.26 0 14.52 0 22 0 C22 29.37 22 58.74 22 89 C26.95 89 31.9 89 37 89 C35.76647174 97.63469783 32.52405297 103.51001628 25.5390625 108.8984375 C23.394105 110.33968655 21.23665882 111.70669388 19 113 C19.44472656 113.61746094 19.88945313 114.23492187 20.34765625 114.87109375 C23.86177061 120.13025806 25.88374074 123.73213376 24.625 130.08203125 C23.82492887 132.53724953 22.90784854 134.24477934 21 136 C20.34 136 19.68 136 19 136 C19 136.66 19 137.32 19 138 C19.70125 138.2475 20.4025 138.495 21.125 138.75 C28.10073372 141.78292771 32.82327853 146.0382487 36 153 C36 154.98 36 156.96 36 159 C65.37 159 94.74 159 125 159 C126.485 154.05 126.485 154.05 128 149 C128.78215283 146.85100052 129.59335164 144.71213603 130.4453125 142.58984375 C130.88230469 141.49865234 131.31929687 140.40746094 131.76953125 139.28320312 C132.21683594 138.17912109 132.66414063 137.07503906 133.125 135.9375 C133.58003906 134.79861328 134.03507812 133.65972656 134.50390625 132.48632812 C137.86396416 124.13603584 137.86396416 124.13603584 139 123 C140.45481495 122.9043839 141.91425486 122.87811649 143.37220764 122.87974548 C144.31596756 122.87837082 145.25972748 122.87699615 146.23208618 122.87557983 C147.27577362 122.87917511 148.31946106 122.88277039 149.39477539 122.88647461 C150.48732132 122.88632858 151.57986725 122.88618256 152.70552063 122.8860321 C156.33625233 122.88673178 159.96693346 122.89452671 163.59765625 122.90234375 C166.10729443 122.90420774 168.61693298 122.90563173 171.12657166 122.90663147 C177.06934593 122.91006652 183.01210384 122.91795727 188.95486969 122.92798096 C196.38201925 122.94023747 203.80917105 122.94562208 211.23632812 122.95117188 C224.49089473 122.96191189 237.74544621 122.97879918 251 123 C252.67739218 126.99978797 254.34955546 131.0017108 256.01708984 135.00561523 C256.58404701 136.36492489 257.15238214 137.72366072 257.72216797 139.08178711 C258.54505238 141.04388365 259.36281484 143.0080505 260.1796875 144.97265625 C260.67194824 146.15093994 261.16420898 147.32922363 261.67138672 148.54321289 C262.98371519 151.95763018 263.99508936 155.48281276 265 159 C294.37 159 323.74 159 354 159 C354 157.02 354 155.04 354 153 C357.0414501 145.90328311 362.02858449 141.82023211 369 138.625 C369.66 138.41875 370.32 138.2125 371 138 C371 137.34 371 136.68 371 136 C370.071875 135.6596875 370.071875 135.6596875 369.125 135.3125 C366.28576732 133.55885629 365.87037313 132.19136813 365 129 C364.17828357 123.71753724 365.98253962 120.92502654 368.90625 116.734375 C370.17780649 115.0597914 370.17780649 115.0597914 370 113 C368.40910873 111.6584751 368.40910873 111.6584751 366.375 110.3125 C360.40648248 105.97079964 355.72439347 100.96233886 353 94 C353 92.35 353 90.7 353 89 C357.62 89 362.24 89 367 89 C367 59.63 367 30.26 367 0 C374.26 0 381.52 0 389 0 C389 29.37 389 58.74 389 89 C394.28 89 399.56 89 405 89 C403.7880651 97.48354427 400.70569755 102.64722602 394.375 108.375 C393.59125 108.91125 392.8075 109.4475 392 110 C390.6078125 111.11375 390.6078125 111.11375 389.1875 112.25 C388.465625 112.8275 387.74375 113.405 387 114 C387.804375 115.010625 388.60875 116.02125 389.4375 117.0625 C392.00412459 120.6894111 393 123.46846872 393 128 C391.5477424 131.77586975 389.89018503 134.23971093 387 137 C387.72445312 137.4125 388.44890625 137.825 389.1953125 138.25 C395.26629913 141.87640268 400.91625028 145.40877922 404 152 C404.33 154.31 404.66 156.62 405 159 C416.88 159 428.76 159 441 159 C441.33 157.02 441.66 155.04 442 153 C445.13314538 147.28043259 449.91488336 142.97180708 455 139 C454.34 138.360625 453.68 137.72125 453 137.0625 C441.06675627 125.02697133 441.06675627 125.02697133 439 118 C439.33 116.68 439.66 115.36 440 114 C443.96 114 447.92 114 452 114 C452 90.57 452 67.14 452 43 C459.59 43 467.18 43 475 43 C475 66.43 475 89.86 475 114 C479.29 114 483.58 114 488 114 C486.41929544 123.48422737 482.03033328 129.68378945 474.734375 135.8203125 C473 137 473 137 471 137 C471.721875 137.721875 472.44375 138.44375 473.1875 139.1875 C474.115625 140.115625 475.04375 141.04375 476 142 C476.845625 142.78375 477.69125 143.5675 478.5625 144.375 C482.85570212 148.99844843 485 152.4757076 485 159 C498.86 159 512.72 159 527 159 C527 134.25 527 109.5 527 84 C534.26 84 541.52 84 549 84 C549 108.75 549 133.5 549 159 C554.61 159 560.22 159 566 159 C564.9964853 167.02811763 564.21984441 170.02164392 558.5 175.3125 C556.16357037 176.88959 554.69006782 177.42437108 552 178 C552.00666183 178.71917099 552.01332367 179.43834198 552.02018738 180.17930603 C552.08054841 186.99002592 552.12610064 193.8007053 552.15543652 200.61162472 C552.17102599 204.11237531 552.19213941 207.61290302 552.22631836 211.11352539 C552.26545205 215.14731871 552.27976462 219.18088156 552.29296875 223.21484375 C552.30845261 224.45894516 552.32393646 225.70304657 552.33988953 226.98484802 C552.34282613 242.28451161 552.34282613 242.28451161 547.54777527 247.61412048 C543.83146593 250.81255313 541.35528291 252.12665378 536.55029297 252.11352539 C535.62948944 252.11344986 534.70868591 252.11337433 533.75997925 252.11329651 C532.26617233 252.10555458 532.26617233 252.10555458 530.7421875 252.09765625 C529.72399933 252.0962413 528.70581116 252.09482635 527.6567688 252.09336853 C524.39614965 252.087759 521.13559849 252.07520488 517.875 252.0625 C515.66796974 252.05748623 513.46093841 252.05292311 511.25390625 252.04882812 C505.83591419 252.03778648 500.41796195 252.02103905 495 252 C495.02618408 252.64026123 495.05236816 253.28052246 495.0793457 253.94018555 C495.18361281 256.85570502 495.24841753 259.77083198 495.3125 262.6875 C495.3753418 264.19860352 495.3753418 264.19860352 495.43945312 265.74023438 C495.56288328 273.22010149 495.56288328 273.22010149 492.73046875 277.14453125 C490 279 490 279 486 280 C485.67 326.86 485.34 373.72 485 422 C486.65 422.33 488.3 422.66 490 423 C492.75262393 425.29385328 493.85784096 426.57352289 495 430 C495.08021999 431.40824893 495.10765977 432.81997231 495.09765625 434.23046875 C495.09443359 435.03291016 495.09121094 435.83535156 495.08789062 436.66210938 C495.07951172 437.49548828 495.07113281 438.32886719 495.0625 439.1875 C495.05798828 440.03248047 495.05347656 440.87746094 495.04882812 441.74804688 C495.03705403 443.83206155 495.0191189 445.91603977 495 448 C496.19238281 447.94199219 497.38476562 447.88398437 498.61328125 447.82421875 C500.17964841 447.77732153 501.74605784 447.73182132 503.3125 447.6875 C504.09818359 447.64560547 504.88386719 447.60371094 505.69335938 447.56054688 C506.45068359 447.54443359 507.20800781 447.52832031 507.98828125 447.51171875 C508.68477783 447.48553467 509.38127441 447.45935059 510.09887695 447.43237305 C512 448 512 448 513.73901367 449.88598633 C515.55985771 454.38257213 515.31975631 458.5139699 515.1875 463.3125 C515.17396484 464.24384766 515.16042969 465.17519531 515.14648438 466.13476562 C515.11126882 468.42377646 515.06202099 470.71158458 515 473 C515.60943451 472.99333817 516.21886902 472.98667633 516.84677124 472.97981262 C523.17285909 472.91359421 529.49884898 472.86825579 535.82519531 472.83520508 C538.1881917 472.820091 540.55115991 472.79959924 542.9140625 472.77368164 C546.30475809 472.73741371 549.69508379 472.72030001 553.0859375 472.70703125 C554.14743011 472.69154739 555.20892273 472.67606354 556.30258179 472.66011047 C557.77388046 472.65977058 557.77388046 472.65977058 559.27490234 472.65942383 C560.57396011 472.64943108 560.57396011 472.64943108 561.89926147 472.63923645 C562.59250519 472.75828842 563.2857489 472.87734039 564 473 C566.49336211 476.74004317 566.25481228 479.62561609 566.1953125 483.94921875 C566.19106766 485.10814384 566.19106766 485.10814384 566.18673706 486.29048157 C566.17554878 488.75631243 566.15044703 491.22177906 566.125 493.6875 C566.11496843 495.36002079 566.10584289 497.03254728 566.09765625 498.70507812 C566.07561392 502.80352559 566.04109363 506.90170106 566 511 C566.83565239 510.99000725 566.83565239 510.99000725 567.68818665 510.97981262 C573.4791589 510.91351434 579.27002361 510.8682225 585.0612793 510.83520508 C587.22343321 510.82010556 589.38555643 510.79962429 591.54760742 510.77368164 C594.652909 510.73734983 597.75780614 510.72028538 600.86328125 510.70703125 C601.83211746 510.69154739 602.80095367 510.67606354 603.79914856 510.66011047 C605.15020943 510.65977058 605.15020943 510.65977058 606.52856445 510.65942383 C607.32132278 510.65276199 608.11408112 510.64610016 608.93086243 510.63923645 C611.57306288 511.09991612 612.44205351 511.83743612 614 514 C614.26172754 517.01296236 614.34860113 519.81480568 614.29296875 522.82421875 C614.28872391 523.68561966 614.28447906 524.54702057 614.28010559 525.43452454 C614.26331248 528.18583431 614.22565956 530.93641162 614.1875 533.6875 C614.17245396 535.5527238 614.15876541 537.41795907 614.14648438 539.28320312 C614.11340693 543.85575098 614.0616206 548.4277513 614 553 C614.98395752 552.98428955 615.96791504 552.9685791 616.98168945 552.95239258 C620.63248508 552.89809022 624.28324501 552.86364915 627.93432617 552.83520508 C629.51446536 552.82011906 631.09456269 552.7996475 632.67456055 552.77368164 C634.94590585 552.73728874 637.21669759 552.72027238 639.48828125 552.70703125 C640.54780754 552.68380547 640.54780754 552.68380547 641.6287384 552.66011047 C646.54357038 552.65842427 646.54357038 552.65842427 648.68635559 554.26200867 C650.29898875 556.39557117 650.37951231 557.4948057 650.38818359 560.1484375 C650.39764008 560.97939941 650.40709656 561.81036133 650.4168396 562.66650391 C650.41076691 563.56030762 650.40469421 564.45411133 650.3984375 565.375 C650.40130768 566.29587402 650.40417786 567.21674805 650.40713501 568.16552734 C650.40917631 570.11231094 650.40364183 572.05911502 650.39111328 574.00585938 C650.37506056 576.98874699 650.39095972 579.97027961 650.41015625 582.953125 C650.40817383 584.843753 650.40433018 586.73438015 650.3984375 588.625 C650.40451019 589.51880371 650.41058289 590.41260742 650.4168396 591.33349609 C650.40738312 592.16445801 650.39792664 592.99541992 650.38818359 593.8515625 C650.38579681 594.58197754 650.38341003 595.31239258 650.38095093 596.06494141 C649.86840072 598.6684649 649.11881917 599.40351294 647 601 C644.24926907 601.37590417 644.24926907 601.37590417 640.83438206 601.37719816 C639.5325997 601.38496494 638.23081735 601.39273172 636.88958704 601.40073386 C635.43343463 601.39419161 633.97728342 601.38737573 632.52113342 601.38031673 C630.97683455 601.38374697 629.43253813 601.38849155 627.88824689 601.3944377 C623.61435314 601.40702716 619.34065721 601.40076182 615.06676225 601.39160402 C610.4285859 601.3849292 605.790445 601.39554264 601.15227604 601.40399987 C593.01329555 601.41641041 584.87437267 601.41756038 576.73538589 601.41144943 C564.63275645 601.40238661 552.53018061 601.41036757 540.42755529 601.42174067 C518.81659614 601.44144619 497.20566093 601.4437476 475.59469494 601.43854547 C456.68300991 601.43399513 437.77133438 601.43457893 418.85964966 601.44038582 C416.3266659 601.44114267 413.79368214 601.44189865 411.26069838 601.44265376 C407.44412085 601.44379891 403.62754333 601.44494878 399.81096581 601.44611301 C364.31002703 601.4568241 328.80909079 601.46156841 293.30815125 601.45364285 C292.63869565 601.45349454 291.96924005 601.45334623 291.27949792 601.45319343 C283.81401092 601.45153437 276.34852394 601.44978479 268.88303697 601.44800042 C267.87196192 601.44775889 267.87196192 601.44775889 266.84046112 601.44751247 C261.36912295 601.44620448 261.36912295 601.44620448 258.66270058 601.44555128 C215.5391157 601.4351578 172.41557161 601.44292885 129.29199219 601.46655273 C118.42527778 601.47249588 107.55856336 601.47838733 96.69184875 601.48396206 C96.02279105 601.48430583 95.35373335 601.4846496 94.66440117 601.48500379 C58.56495073 601.5034341 22.46550024 601.50375681 -13.63395405 601.49836498 C-18.70918591 601.49764888 -23.78441778 601.4969745 -28.85964966 601.49632454 C-30.73423905 601.49606983 -30.73423905 601.49606983 -32.64669894 601.49580997 C-51.55027208 601.49350247 -70.45382317 601.50150536 -89.35739136 601.51461601 C-110.84345414 601.52949084 -132.3294651 601.53041942 -153.81552672 601.5125451 C-165.85258511 601.50294492 -177.8895228 601.50449236 -189.92657326 601.52177979 C-197.95386634 601.53220916 -205.98106678 601.52825438 -214.00835063 601.51229975 C-218.59072522 601.50360335 -223.17286201 601.50139906 -227.75522506 601.51656907 C-231.91673598 601.53021678 -236.07780265 601.52574918 -240.23928683 601.50628388 C-241.74231198 601.50252104 -243.24537214 601.5055873 -244.74836595 601.51599697 C-246.77700254 601.52908867 -248.80576022 601.51545205 -250.83438206 601.50024599 C-251.96129477 601.50019869 -253.08820748 601.5001514 -254.24926907 601.50010267 C-257 601 -257 601 -258.86154169 599.09481895 C-260.1148254 596.78871565 -260.37942547 595.43670546 -260.38818359 592.82983398 C-260.39764008 592.01896835 -260.40709656 591.20810272 -260.4168396 590.37266541 C-260.41076691 589.50589676 -260.40469421 588.63912811 -260.3984375 587.74609375 C-260.40274277 586.4001992 -260.40274277 586.4001992 -260.40713501 585.02711487 C-260.4091737 583.1333859 -260.40365746 581.23963578 -260.39111328 579.34594727 C-260.37503793 576.44434693 -260.39097809 573.54413554 -260.41015625 570.64257812 C-260.40817415 568.80208026 -260.40433117 566.96158325 -260.3984375 565.12109375 C-260.40451019 564.25230087 -260.41058289 563.383508 -260.4168396 562.48838806 C-260.40738312 561.68067459 -260.39792664 560.87296112 -260.38818359 560.04077148 C-260.38579681 559.33113754 -260.38341003 558.6215036 -260.38095093 557.8903656 C-259.87948313 555.40196773 -259.01161933 554.51345154 -257 553 C-254.41225229 552.73846931 -252.07100347 552.65041562 -249.48828125 552.70703125 C-248.76005661 552.71127609 -248.03183197 552.71552094 -247.28153992 552.71989441 C-244.95814873 552.73667267 -242.6356285 552.77432145 -240.3125 552.8125 C-238.73634066 552.82754803 -237.16016771 552.84123623 -235.58398438 552.85351562 C-231.72232123 552.88657315 -227.86130822 552.93834806 -224 553 C-224.02094727 551.83952148 -224.04189453 550.67904297 -224.06347656 549.48339844 C-224.13591807 545.17476762 -224.18181471 540.86619055 -224.21972656 536.55712891 C-224.23983261 534.69277899 -224.2671218 532.82849206 -224.30175781 530.96435547 C-224.35032121 528.28337052 -224.37297838 525.60321977 -224.390625 522.921875 C-224.41127014 522.08944275 -224.43191528 521.2570105 -224.45318604 520.39935303 C-224.45455538 516.86178299 -224.33009094 514.59794407 -222.6015625 511.46679688 C-218.50939807 509.15957804 -214.59989112 509.50819867 -209.984375 509.609375 C-209.01340881 509.61503479 -208.04244263 509.62069458 -207.04205322 509.62652588 C-203.94419831 509.64889689 -200.84750467 509.69909527 -197.75 509.75 C-195.64845422 509.77006403 -193.54689028 509.78831497 -191.4453125 509.8046875 C-186.2964283 509.8487642 -181.14841097 509.91779742 -176 510 C-176.01571045 508.98574951 -176.0314209 507.97149902 -176.04760742 506.92651367 C-176.10190319 503.16389913 -176.13634851 499.40131922 -176.16479492 495.63842773 C-176.17988243 494.00978777 -176.20035506 492.38118844 -176.22631836 490.75268555 C-176.26270449 488.41184465 -176.2797262 486.07154081 -176.29296875 483.73046875 C-176.30845261 483.00224411 -176.32393646 482.27401947 -176.33988953 481.52372742 C-176.34157144 476.47279316 -176.34157144 476.47279316 -174.77539062 474.30493164 C-172.46410451 472.60611092 -171.10653022 472.63695645 -168.25317383 472.65942383 C-167.29240433 472.65965042 -166.33163483 472.65987701 -165.3417511 472.66011047 C-163.79006477 472.68333626 -163.79006477 472.68333626 -162.20703125 472.70703125 C-160.61528328 472.71339851 -160.61528328 472.71339851 -158.99137878 472.71989441 C-155.59816235 472.73670294 -152.20553728 472.77435981 -148.8125 472.8125 C-146.51368044 472.827544 -144.21485159 472.84123289 -141.91601562 472.85351562 C-136.27714158 472.88661355 -130.63861303 472.9368347 -125 473 C-124.98018066 472.31373535 -124.96036133 471.6274707 -124.93994141 470.92041016 C-124.84489055 467.82154221 -124.73513153 464.72336706 -124.625 461.625 C-124.57859375 460.00464844 -124.57859375 460.00464844 -124.53125 458.3515625 C-124.47324219 456.8046875 -124.47324219 456.8046875 -124.4140625 455.2265625 C-124.3826416 454.27346191 -124.3512207 453.32036133 -124.31884766 452.33837891 C-124 450 -124 450 -122 448 C-120.12060547 447.77294922 -120.12060547 447.77294922 -117.8671875 447.8046875 C-117.06152344 447.81113281 -116.25585938 447.81757812 -115.42578125 447.82421875 C-114.58402344 447.84097656 -113.74226562 447.85773438 -112.875 447.875 C-112.02550781 447.88402344 -111.17601562 447.89304687 -110.30078125 447.90234375 C-108.20040116 447.92594353 -106.10016556 447.96181517 -104 448 C-104.04640625 446.77023437 -104.0928125 445.54046875 -104.140625 444.2734375 C-104.17816036 442.6406494 -104.21455862 441.00783489 -104.25 439.375 C-104.28351563 438.56675781 -104.31703125 437.75851562 -104.3515625 436.92578125 C-104.44021299 431.47377581 -103.81114643 428.213002 -100 424 C-98.35 423.34 -96.7 422.68 -95 422 C-95 375.14 -95 328.28 -95 280 C-96.65 279.67 -98.3 279.34 -100 279 C-102.7286639 276.94447641 -103.85351724 275.82754886 -104.45410156 272.43457031 C-104.4331543 271.49194336 -104.41220703 270.54931641 -104.390625 269.578125 C-104.37773437 268.55332031 -104.36484375 267.52851562 -104.3515625 266.47265625 C-104.30128906 264.87744141 -104.30128906 264.87744141 -104.25 263.25 C-104.23195313 262.17105469 -104.21390625 261.09210938 -104.1953125 259.98046875 C-104.14821415 257.31941212 -104.082456 254.66015746 -104 252 C-104.84445175 252.00999275 -104.84445175 252.00999275 -105.70596313 252.02018738 C-111.57849401 252.08668604 -117.45091747 252.1318608 -123.32373047 252.16479492 C-125.51387885 252.17985806 -127.70399719 252.20031259 -129.89404297 252.22631836 C-133.04662503 252.26280989 -136.19880737 252.27975139 -139.3515625 252.29296875 C-140.32678864 252.30845261 -141.30201477 252.32393646 -142.30679321 252.33988953 C-147.64239544 252.34120295 -151.39733652 252.01683753 -156 249 C-161.32642601 243.67357399 -162.10637455 238.02673976 -162.22705078 230.78930664 C-162.22673607 228.32956711 -162.21555285 225.86981252 -162.1953125 223.41015625 C-162.1924826 222.11049423 -162.18965271 220.81083221 -162.18673706 219.4717865 C-162.17914655 216.03750745 -162.15953823 212.60340093 -162.1373291 209.16918945 C-162.11677121 205.65643649 -162.1077142 202.14365531 -162.09765625 198.63085938 C-162.07628736 191.75383594 -162.04220764 184.87692628 -162 178 C-162.95156982 177.71318359 -163.90313965 177.42636719 -164.88354492 177.13085938 C-168.5067013 175.81613471 -169.35871867 174.74401428 -171.3125 171.5 C-171.80363281 170.7059375 -172.29476562 169.911875 -172.80078125 169.09375 C-175.18409732 164.93265094 -175 164.64536859 -175 159 C-169.39 159 -163.78 159 -158 159 C-158 134.25 -158 109.5 -158 84 C-150.74 84 -143.48 84 -136 84 C-136 108.75 -136 133.5 -136 159 C-122.47 159 -108.94 159 -95 159 C-94.67 157.35 -94.34 155.7 -94 154 C-91.07892032 147.60622043 -86.42890785 143.31079531 -81 139 C-81.680625 138.34 -82.36125 137.68 -83.0625 137 C-97 122.94371449 -97 122.94371449 -97 114 C-93.04 114 -89.08 114 -85 114 C-85 90.57 -85 67.14 -85 43 C-77.41 43 -69.82 43 -62 43 C-62 66.43 -62 89.86 -62 114 C-58.04 114 -54.08 114 -50 114 C-48.71425219 119.14299123 -49.94520062 120.8682446 -52.33203125 125.39453125 C-54.98714693 129.54198362 -58.3705562 132.71224024 -62 136 C-63.005621 136.99434722 -64.00773361 137.99232574 -65 139 C-64.46890625 139.37511719 -63.9378125 139.75023437 -63.390625 140.13671875 C-55.35862574 145.95552113 -53.29282395 148.68229221 -51 159 C-39.12 159 -27.24 159 -15 159 C-14.67 157.02 -14.34 155.04 -14 153 C-10.25984714 145.35653325 -4.78170656 140.42395089 3 137 C2.175 136.401875 1.35 135.80375 0.5 135.1875 C-2.10119108 132.55649584 -2.49770693 130.40736384 -2.6875 126.75 C-2.44481155 120.58236599 0.13918008 116.65366686 4 112 C3.41992188 111.88527344 2.83984375 111.77054687 2.2421875 111.65234375 C-4.99321535 109.5472701 -9.2126382 103.78287129 -12.87109375 97.5625 C-14 95 -14 95 -15 89 C-10.05 89 -5.1 89 0 89 C0 59.63 0 30.26 0 0 Z " fill="#184A82" transform="translate(573,318)"/>
<path d="M0 0 C132.99 0 265.98 0 403 0 C403 64.68 403 129.36 403 196 C402.01 196 401.02 196 400 196 C400 200.29 400 204.58 400 209 C269.32 209 138.64 209 4 209 C4 204.38 4 199.76 4 195 C2.68 195 1.36 195 0 195 C0 130.65 0 66.3 0 0 Z " fill="#042851" transform="translate(566,570)"/>
<path d="M0 0 C224.4 0 448.8 0 680 0 C680 19.47 680 38.94 680 59 C671.95625 59.061875 663.9125 59.12375 655.625 59.1875 C653.10568848 59.21481201 650.58637695 59.24212402 647.99072266 59.27026367 C645.96517413 59.27903604 643.93962026 59.2866782 641.9140625 59.29296875 C640.88563232 59.30831665 639.85720215 59.32366455 638.79760742 59.33947754 C622.41484403 59.3453355 611.55123582 52.05969387 600 41 C599.48953125 41.50789062 598.9790625 42.01578125 598.453125 42.5390625 C588.19926854 52.24750106 575.77988067 57.71246638 561.625 58.5 C550.1790847 58.12066851 540.12768321 52.46298859 531 46 C530.26265625 45.48566406 529.5253125 44.97132813 528.765625 44.44140625 C527.16491856 43.3113075 525.58009792 42.15873847 524 41 C523.2575 42.051875 523.2575 42.051875 522.5 43.125 C515.37969949 51.31334558 505.00520366 57.28116539 494.12890625 58.2578125 C481.34872908 58.71808299 470.79594528 55.2366656 461 47 C460.02422345 46.01701328 459.06233593 45.01970787 458.125 44 C457.42375 43.34 456.7225 42.68 456 42 C452.55655911 42.3111543 451.17543785 43.62116316 449 46.1875 C440.82823404 54.70998553 429.53550848 57.94711756 418.0625 58.3125 C403.54443171 58.0180905 392.24611635 50.47669003 381 42 C380.01 41.34 379.02 40.68 378 40 C377.7525 40.58910156 377.505 41.17820312 377.25 41.78515625 C373.00474796 49.3072122 362.68373135 54.07194979 354.7890625 56.75 C341.07056787 60.3158181 329.25042468 57.06951891 316.984375 50.76171875 C312.26771535 47.97740789 308.12110883 44.59229398 304 41 C303.53851562 41.36351562 303.07703125 41.72703125 302.6015625 42.1015625 C287.92904373 53.41042084 274.66495741 59.00596636 256 57 C252.28019501 56.16398322 249.29193129 54.89873894 246 53 C245.175 52.55269531 244.35 52.10539063 243.5 51.64453125 C237.58817274 48.28308069 232.26124008 44.29540857 227 40 C226.72671875 40.60199219 226.4534375 41.20398438 226.171875 41.82421875 C221.65727891 50.20631882 209.69891174 55.10036275 201 58 C187.51679744 59.68647041 176.11570348 58.04259561 165 50 C161.70972147 47.20863952 158.76144157 44.31372989 156 41 C154.8553125 41.7734375 154.8553125 41.7734375 153.6875 42.5625 C125.84801053 61.05634525 125.84801053 61.05634525 109 59 C97.04454678 56.36068838 87.10065899 50.0959618 79 41 C78.47792969 41.58007812 77.95585937 42.16015625 77.41796875 42.7578125 C68.57390966 52.14397679 58.18135412 58.05476865 45.16583252 59.26312256 C42.24800209 59.34323868 39.34429452 59.33866985 36.42578125 59.29296875 C35.49326538 59.28994751 34.56074951 59.28692627 33.59997559 59.28381348 C30.17070182 59.2683103 26.74158784 59.22642906 23.3125 59.1875 C11.7728125 59.0946875 11.7728125 59.0946875 0 59 C0 39.53 0 20.06 0 0 Z " fill="#042851" transform="translate(428,493)"/>
<path d="M0 0 C293.04 0 586.08 0 888 0 C888 9.24 888 18.48 888 28 C594.96 28 301.92 28 0 28 C0 18.76 0 9.52 0 0 Z " fill="#042851" transform="translate(324,880)"/>
<path d="M0 0 C268.62 0 537.24 0 814 0 C814 9.24 814 18.48 814 28 C545.38 28 276.76 28 0 28 C0 18.76 0 9.52 0 0 Z " fill="#042851" transform="translate(361,839)"/>
<path d="M0 0 C132.99 0 265.98 0 403 0 C403 64.68 403 129.36 403 196 C402.01 196 401.02 196 400 196 C400 200.29 400 204.58 400 209 C269.32 209 138.64 209 4 209 C4 204.38 4 199.76 4 195 C2.68 195 1.36 195 0 195 C0 130.65 0 66.3 0 0 Z M21 14 C21 73.07 21 132.14 21 193 C140.13 193 259.26 193 382 193 C382 133.93 382 74.86 382 14 C262.87 14 143.74 14 21 14 Z " fill="#04264F" transform="translate(566,570)"/>
<path d="M0 0 C236.94 0 473.88 0 718 0 C718 8.58 718 17.16 718 26 C481.06 26 244.12 26 0 26 C0 17.42 0 8.84 0 0 Z " fill="#042750" transform="translate(409,802)"/>
<path d="M0 0 C11.22 0 22.44 0 34 0 C34 25.08 34 50.16 34 76 C61.06 76 88.12 76 116 76 C116 86.56 116 97.12 116 108 C88.94 108 61.88 108 34 108 C34 162.12 34 216.24 34 272 C41.59 272 49.18 272 57 272 C57 278.6 57 285.2 57 292 C31.26 292 5.52 292 -21 292 C-21 285.4 -21 278.8 -21 272 C-14.07 272 -7.14 272 0 272 C0 217.88 0 163.76 0 108 C-26.4 108 -52.8 108 -80 108 C-80 97.44 -80 86.88 -80 76 C-53.6 76 -27.2 76 0 76 C0 50.92 0 25.84 0 0 Z " fill="#184B84" transform="translate(750,140)"/>
<path d="M0 0 C2.50791774 1.9164277 4.81429355 3.91966164 7.109375 6.0859375 C8.37007812 7.26736328 8.37007812 7.26736328 9.65625 8.47265625 C14.65700772 13.54160612 18.35197578 18.77103122 21.546875 25.0859375 C21.86479004 25.71371094 22.18270508 26.34148438 22.51025391 26.98828125 C26.9448878 36.32033494 28.59455386 45.36368435 28.421875 55.6484375 C28.42509766 56.61201172 28.42832031 57.57558594 28.43164062 58.56835938 C28.29716348 76.69832404 21.45759194 92.61129288 8.984375 105.7734375 C-0.60382234 114.94305051 -11.27535331 120.26734423 -23.890625 124.0859375 C-24.633125 124.33214844 -25.375625 124.57835937 -26.140625 124.83203125 C-42.41039826 129.43968188 -60.13848827 125.31546146 -74.890625 118.0859375 C-91.3609137 108.86963137 -104.40257523 95.31122027 -109.81640625 76.9453125 C-114.94463709 57.21013032 -113.56857182 39.44358634 -103.93359375 21.40625 C-95.06697757 6.99587953 -83.25066304 -2.2099575 -67.890625 -8.9140625 C-66.43462891 -9.56955078 -66.43462891 -9.56955078 -64.94921875 -10.23828125 C-43.23988416 -18.47684364 -18.69481378 -12.37899831 0 0 Z " fill="#042750" transform="translate(809.890625,620.9140625)"/>
<path d="M0 0 C119.13 0 238.26 0 361 0 C361 59.07 361 118.14 361 179 C241.87 179 122.74 179 0 179 C0 119.93 0 60.86 0 0 Z M11 11 C11 63.14 11 115.28 11 169 C122.54 169 234.08 169 349 169 C349 116.86 349 64.72 349 11 C237.46 11 125.92 11 11 11 Z " fill="#1A4C85" transform="translate(587,584)"/>
<path d="M0 0 C14.52 0 29.04 0 44 0 C44 46.53 44 93.06 44 141 C29.48 141 14.96 141 0 141 C0 94.47 0 47.94 0 0 Z " fill="#052952" transform="translate(1001,597)"/>
<path d="M0 0 C14.52 0 29.04 0 44 0 C44 46.53 44 93.06 44 141 C29.48 141 14.96 141 0 141 C0 94.47 0 47.94 0 0 Z " fill="#052851" transform="translate(491,597)"/>
<path d="M0 0 C2.50791774 1.9164277 4.81429355 3.91966164 7.109375 6.0859375 C8.37007812 7.26736328 8.37007812 7.26736328 9.65625 8.47265625 C14.65700772 13.54160612 18.35197578 18.77103122 21.546875 25.0859375 C21.86479004 25.71371094 22.18270508 26.34148438 22.51025391 26.98828125 C26.9448878 36.32033494 28.59455386 45.36368435 28.421875 55.6484375 C28.42509766 56.61201172 28.42832031 57.57558594 28.43164062 58.56835938 C28.29716348 76.69832404 21.45759194 92.61129288 8.984375 105.7734375 C-0.60382234 114.94305051 -11.27535331 120.26734423 -23.890625 124.0859375 C-24.633125 124.33214844 -25.375625 124.57835937 -26.140625 124.83203125 C-42.41039826 129.43968188 -60.13848827 125.31546146 -74.890625 118.0859375 C-91.3609137 108.86963137 -104.40257523 95.31122027 -109.81640625 76.9453125 C-114.94463709 57.21013032 -113.56857182 39.44358634 -103.93359375 21.40625 C-95.06697757 6.99587953 -83.25066304 -2.2099575 -67.890625 -8.9140625 C-66.43462891 -9.56955078 -66.43462891 -9.56955078 -64.94921875 -10.23828125 C-43.23988416 -18.47684364 -18.69481378 -12.37899831 0 0 Z M-85.890625 18.0859375 C-91.4921456 24.7227586 -94.97598675 31.94544396 -97.890625 40.0859375 C-98.138125 40.74980469 -98.385625 41.41367187 -98.640625 42.09765625 C-102.6651419 54.98169992 -99.76547321 69.31327171 -94.203125 81.2109375 C-86.20726934 96.25964865 -74.00735127 106.5717395 -57.8828125 112.12109375 C-42.03149326 116.57022382 -26.55083535 113.77645836 -12.15234375 106.1015625 C-7.11151953 102.98651424 -2.95743486 99.37908687 1.109375 95.0859375 C1.75519531 94.41046875 2.40101563 93.735 3.06640625 93.0390625 C14.44242171 79.85378968 16.30512339 62.81305459 15.109375 46.0859375 C12.60387808 31.47556992 4.34749772 19.47568477 -6.890625 10.0859375 C-32.53284569 -7.62403057 -64.2901038 -4.35096752 -85.890625 18.0859375 Z " fill="#184B83" transform="translate(809.890625,620.9140625)"/>
<path d="M0 0 C1.27773238 -0.00250352 2.55546475 -0.00500704 3.87191629 -0.00758642 C5.3112645 -0.00530909 6.75061256 -0.00294087 8.18996048 -0.00049198 C9.7086546 -0.00153375 11.22734847 -0.00301397 12.74604177 -0.00489634 C16.95810394 -0.00882271 21.17014347 -0.00644365 25.38220531 -0.00311839 C29.94989872 -0.00059811 34.51758847 -0.00383503 39.08528137 -0.00636172 C47.10355972 -0.00998681 55.12183135 -0.00985566 63.14011002 -0.00731456 C75.06318745 -0.00354617 86.98625917 -0.00545845 98.90933657 -0.00852287 C120.19873709 -0.0138005 141.48813463 -0.0133275 162.77753544 -0.01044396 C181.40774759 -0.00793284 200.03795864 -0.00726962 218.66817093 -0.0084666 C219.9018057 -0.00854299 221.13544047 -0.00861937 222.40645811 -0.00869807 C227.41361866 -0.00900939 232.42077921 -0.00932778 237.42793976 -0.00965784 C283.77017181 -0.01267617 330.11240228 -0.01009487 376.454634 -0.00479134 C418.93666202 0.00006524 461.41868688 -0.00016018 503.90071487 -0.00502193 C550.82630956 -0.01037485 597.75190287 -0.0125028 644.67749786 -0.00940967 C649.67577235 -0.00908893 654.67404683 -0.00877609 659.67232132 -0.0084666 C661.51850633 -0.00834799 661.51850633 -0.00834799 663.401988 -0.00822697 C682.02489579 -0.00708735 700.64780237 -0.00842377 719.27070999 -0.01094615 C740.43626534 -0.01379855 761.60181722 -0.01310529 782.76737213 -0.00766541 C794.62705771 -0.00471821 806.48673578 -0.00455309 818.34642117 -0.00831159 C826.25299588 -0.01054189 834.15956453 -0.00918046 842.06613834 -0.00480682 C846.58117989 -0.00241163 851.09620643 -0.00164835 855.61124754 -0.0052128 C859.70926917 -0.00841529 863.80726233 -0.00711151 867.90528184 -0.00203214 C869.38762579 -0.0010153 870.86997203 -0.00171603 872.35231417 -0.00423808 C874.34837153 -0.00739623 876.34443622 -0.00391096 878.34049225 0 C879.45069457 0.00006776 880.5608969 0.00013552 881.70474172 0.00020533 C884.17024612 0.12534916 884.17024612 0.12534916 885.17024612 1.12534916 C885.42443797 5.57776506 885.35547586 10.04154047 885.35774612 14.50034916 C885.36999222 15.75847416 885.38223831 17.01659916 885.3948555 18.31284916 C885.39775589 20.11882573 885.39775589 20.11882573 885.40071487 21.96128666 C885.40482376 23.07036381 885.40893265 24.17944096 885.41316605 25.32212651 C885.17024612 28.12534916 885.17024612 28.12534916 883.17024612 31.12534916 C880.58270123 31.49983533 880.58270123 31.49983533 877.22270578 31.49909532 C875.94415953 31.50609343 874.66561328 31.51309153 873.3483232 31.5203017 C871.91324786 31.51289218 870.4781739 31.50521011 869.04310131 31.49728596 C867.52494481 31.49980591 866.00679002 31.50364203 864.4886398 31.50868332 C860.28267204 31.51877858 856.07691607 31.50999198 851.87095996 31.4983491 C847.30820014 31.48898813 842.7454666 31.49693404 838.18270546 31.50274742 C830.17463141 31.51052915 822.16662201 31.50708413 814.15855217 31.49642384 C802.25068456 31.48061578 790.34286232 31.48189385 778.4349874 31.48671613 C758.40670608 31.49431828 738.37845227 31.48777181 718.35017586 31.4731046 C698.50999042 31.45859195 678.66981701 31.44981946 658.82962608 31.44891942 C657.5974464 31.44885832 656.36526672 31.44879723 655.09574826 31.44873428 C650.09446597 31.44850478 645.09318369 31.44831759 640.0919014 31.44818614 C594.47876723 31.44697378 548.86564833 31.43126288 503.25252151 31.40659916 C460.1542129 31.3832957 417.05591451 31.36913106 373.95759964 31.36558354 C372.61651925 31.36547115 371.27543885 31.36535851 369.93435846 31.36524561 C365.24969379 31.36485216 360.56502913 31.36446498 355.88036446 31.36407848 C352.54542415 31.36380332 349.21048383 31.36352715 345.87554352 31.36324931 C343.2150937 31.36302795 340.55464389 31.36280918 337.89419408 31.362593 C295.57376779 31.35908137 253.25334343 31.3476201 210.93291907 31.33478667 C198.52885948 31.33106347 186.12480003 31.3277998 173.72074008 31.3255378 C147.62708215 31.32073485 121.53343036 31.3136814 95.43977671 31.29739013 C84.64294232 31.29072263 73.84611295 31.28559031 63.04927635 31.28492939 C54.10579619 31.28437982 45.16232567 31.28056732 36.21884929 31.27215348 C31.70976577 31.26800849 27.20069651 31.26548298 22.6916111 31.26726869 C18.59900537 31.26885202 14.50642999 31.26592349 10.41382968 31.25921312 C8.93344993 31.25760472 7.45306719 31.25771257 5.97268782 31.2596404 C3.97927115 31.26199705 1.9858498 31.25771116 -0.0075627 31.25299966 C-1.11629344 31.25248442 -2.22502418 31.25196919 -3.36735282 31.25143833 C-5.82975388 31.12534916 -5.82975388 31.12534916 -6.82975388 30.12534916 C-6.92978677 27.99181743 -6.96056435 25.85497375 -6.96256638 23.71909916 C-6.96385544 22.4184351 -6.9651445 21.11777104 -6.96647263 19.77769291 C-6.9643779 19.09690678 -6.96228317 18.41612065 -6.96012497 17.71470463 C-6.95477628 15.63406401 -6.96007068 13.55363928 -6.96647263 11.47300541 C-6.96518356 10.17234135 -6.9638945 8.87167729 -6.96256638 7.53159916 C-6.96143845 6.32825932 -6.96031052 5.12491948 -6.95914841 3.88511479 C-6.72714885 -1.06304182 -4.40903979 0.0002691 0 0 Z M-4.82975388 1.12534916 C-4.82975388 10.36534916 -4.82975388 19.60534916 -4.82975388 29.12534916 C288.21024612 29.12534916 581.25024612 29.12534916 883.17024612 29.12534916 C883.17024612 19.88534916 883.17024612 10.64534916 883.17024612 1.12534916 C590.13024612 1.12534916 297.09024612 1.12534916 -4.82975388 1.12534916 Z " fill="#21558F" transform="translate(328.8297538757324,878.8746508359909)"/>
<path d="M0 0 C5.94 0 11.88 0 18 0 C18 9.24 18 18.48 18 28 C25.26 28 32.52 28 40 28 C40 33.61 40 39.22 40 45 C33.07 45 26.14 45 19 45 C19 57.54 19 70.08 19 83 C12.73 83 6.46 83 0 83 C0 70.79 0 58.58 0 46 C-7.26 46 -14.52 46 -22 46 C-22 40.06 -22 34.12 -22 28 C-14.74 28 -7.48 28 0 28 C0 18.76 0 9.52 0 0 Z " fill="#184A82" transform="translate(759,636)"/>
<path d="M0 0 C0.66 0 1.32 0 2 0 C6.85437573 6.7863439 10.12240155 14.28960266 12.93359375 22.1015625 C13.78060969 24.40370839 14.7112053 26.50539981 15.8125 28.6875 C17.81202832 34.26513162 18.23444593 39.21550546 15.79296875 44.72265625 C13.31917906 48.97506942 10.74960789 52.76707036 7 56 C6.01 56 5.02 56 4 56 C4.23783203 54.92492187 4.23783203 54.92492187 4.48046875 53.828125 C6.04427052 45.31539958 5.18975636 38.57522913 1 31 C-3.98010089 39.09266394 -4.06366087 46.82258133 -2 56 C-7.56225539 54.65157445 -10.73442841 50.43310121 -14 46 C-18.38406152 32.84781543 -12.05624781 21.23688676 -6.34228516 9.52441406 C-4.49533282 6.05088057 -2.49143163 3.04744107 0 0 Z " fill="#184B84" transform="translate(1035,297)"/>
<path d="M0 0 C0.99 0 1.98 0 3 0 C19.27323272 29.1183479 19.27323272 29.1183479 17 42 C15.03565163 47.64360405 10.86392346 52.37452993 5.6875 55.3125 C5.130625 55.539375 4.57375 55.76625 4 56 C4.15984375 55.29617188 4.3196875 54.59234375 4.484375 53.8671875 C5.87628214 46.12734024 5.79596588 38.95927078 2 32 C1.34 32 0.68 32 0 32 C-3.60574937 40.11293608 -3.8295062 47.30984557 -2 56 C-7.69549321 53.15225339 -11.51561676 48.83968967 -14.4375 43.25 C-15.99102847 34.27405774 -13.44301174 26.40963739 -9.75 18.3125 C-9.36714844 17.42755859 -8.98429687 16.54261719 -8.58984375 15.63085938 C-3.38125662 3.84621325 -3.38125662 3.84621325 0 0 Z " fill="#174A82" transform="translate(425,338)"/>
<path d="M0 0 C0.66 0 1.32 0 2 0 C6.64971679 7.51200997 10.7090022 15.10264352 14 23.3125 C14.30236572 24.04001465 14.60473145 24.7675293 14.91625977 25.51708984 C17.46283137 32.11058504 18.30434237 38.50331799 15.4375 45.125 C13.05485721 49.37788928 9.82743498 52.98330248 6 56 C5.34 56 4.68 56 4 56 C4.165 55.195625 4.33 54.39125 4.5 53.5625 C5.71598206 44.8986278 4.72976294 38.97569843 1 31 C-2.56655832 35.49696484 -3.13804011 38.67647244 -3.125 44.375 C-3.12757812 45.49648438 -3.13015625 46.61796875 -3.1328125 47.7734375 C-3.01470948 50.64264622 -2.65782328 53.21208229 -2 56 C-7.13453033 53.51053075 -10.62228979 49.50361361 -14 45 C-17.71680479 33.84958563 -12.88181891 23.07450631 -8.06103516 13.046875 C-3.04937532 3.04937532 -3.04937532 3.04937532 0 0 Z " fill="#184B84" transform="translate(1110,338)"/>
<path d="M0 0 C3 1 3 1 4.83203125 4.10546875 C5.5043285 5.46018821 6.16369919 6.82137193 6.8125 8.1875 C7.15925781 8.90711914 7.50601562 9.62673828 7.86328125 10.36816406 C8.57414817 11.85458157 9.27935899 13.34371674 9.97900391 14.83544922 C10.91525799 16.8203437 11.8818613 18.78716643 12.85546875 20.75390625 C16.59434143 28.70234104 19.21755079 36.40894627 16.296875 45.08984375 C14.05076915 49.43929449 10.61130451 52.78122859 7 56 C6.34 56 5.68 56 5 56 C5.03480469 54.85402344 5.06960938 53.70804687 5.10546875 52.52734375 C5.13362703 50.99741061 5.16092499 49.46746146 5.1875 47.9375 C5.21263672 47.18533203 5.23777344 46.43316406 5.26367188 45.65820312 C5.33282151 40.33368144 4.40669334 36.75653566 2 32 C-2.66409323 37.72411441 -3.66051738 42.75971338 -3 50 C-2.11539972 53.41471924 -2.11539972 53.41471924 -1 56 C-6.58823264 54.64527694 -9.69001754 50.41886827 -13 46 C-15.30906846 41.99353684 -15.68429302 38.5431413 -15 34 C-13.61561613 29.22298441 -11.85544133 24.61049057 -10 20 C-9.74879395 19.37125977 -9.49758789 18.74251953 -9.23876953 18.09472656 C-6.64938477 11.67490073 -3.98142352 5.68530154 0 0 Z " fill="#184B83" transform="translate(498,297)"/>
<path d="M0 0 C1.7578125 0.0546875 1.7578125 0.0546875 4 1 C5.49389673 3.37692881 6.69808241 5.59651411 7.875 8.125 C8.216521 8.84131592 8.55804199 9.55763184 8.90991211 10.2956543 C9.95837008 12.52237467 10.979993 14.76012976 12 17 C12.31888184 17.67595215 12.63776367 18.3519043 12.96630859 19.04833984 C16.67352876 26.95642063 19.82528228 34.29324066 17 43 C14.37770809 48.31833578 11.05142881 52.77269826 6 56 C5.34 56 4.68 56 4 56 C4.33 55.030625 4.66 54.06125 5 53.0625 C7.28908545 44.86131614 5.76958953 37.8966273 3 30 C-0.6717345 33.43518017 -2.67552809 37.21740757 -3.2578125 42.2109375 C-3.37619273 47.16599578 -2.59302067 51.32050179 -1 56 C-6.84847908 53.07576046 -10.4391737 48.34123946 -14 43 C-16.69018872 27.73972595 -8.00448689 12.40817117 0 0 Z " fill="#184B84" transform="translate(950,254)"/>
<path d="M0 0 C4.42370914 1.47456971 5.14490535 4.26967955 7.23828125 8.29296875 C9.4425691 12.8357185 11.43565775 17.46394027 13.375 22.125 C13.73295654 22.95942627 14.09091309 23.79385254 14.4597168 24.65356445 C16.67690517 30.14382241 17.96135704 35.07044117 17 41 C15.609375 44.1796875 15.609375 44.1796875 13.75 46.875 C13.14671875 47.77992188 12.5434375 48.68484375 11.921875 49.6171875 C10.09003685 51.88836894 8.46804863 53.46001924 6 55 C5.34 55 4.68 55 4 55 C4.2475 53.824375 4.2475 53.824375 4.5 52.625 C5.63726974 44.37979439 5.14192999 37.74261319 2 30 C-0.7500988 32.37508533 -1.94689053 34.52623606 -3 38 C-3.27783469 41.18470911 -3.27783469 41.18470911 -3.1875 44.5 C-3.18105469 45.6034375 -3.17460938 46.706875 -3.16796875 47.84375 C-3.01744156 50.67226083 -2.64204162 53.24692555 -2 56 C-8.26333405 52.77885677 -12.58923521 47.59788259 -15 41 C-17.68099769 28.38209342 -8.04362711 12.64651338 -2 2 C-1.34 1.34 -0.68 0.68 0 0 Z " fill="#184B84" transform="translate(583,254)"/>
<path d="M0 0 C0 44.88 0 89.76 0 136 C-5 134 -5 134 -7 133 C-7.11677007 116.24963038 -7.20495689 99.49939265 -7.25906086 82.74871445 C-7.28484936 74.97117258 -7.32001179 67.19388352 -7.37719727 59.41650391 C-7.42701299 52.63820264 -7.45928633 45.86008443 -7.47044247 39.0816052 C-7.47696451 35.49190439 -7.49230526 31.90272731 -7.52865028 28.31319427 C-7.56888365 24.30719207 -7.56995065 20.30210196 -7.56762695 16.29589844 C-7.58560333 15.10403427 -7.60357971 13.9121701 -7.62210083 12.68418884 C-7.57152215 4.6564077 -7.57152215 4.6564077 -4.58952332 1.23150635 C-2 0 -2 0 0 0 Z " fill="#032049" transform="translate(555,601)"/>
<path d="M0 0 C21.78 0 43.56 0 66 0 C66 4.29 66 8.58 66 13 C44.22 13 22.44 13 0 13 C0 8.71 0 4.42 0 0 Z " fill="#052952" transform="translate(481,752)"/>
<path d="M0 0 C21.45 0 42.9 0 65 0 C65 4.29 65 8.58 65 13 C43.55 13 22.1 13 0 13 C0 8.71 0 4.42 0 0 Z " fill="#04264F" transform="translate(990,752)"/>
<path d="M0 0 C21.45 0 42.9 0 65 0 C65 4.29 65 8.58 65 13 C43.55 13 22.1 13 0 13 C0 8.71 0 4.42 0 0 Z " fill="#04254E" transform="translate(990,571)"/>
<path d="M0 0 C21.45 0 42.9 0 65 0 C65 4.29 65 8.58 65 13 C43.55 13 22.1 13 0 13 C0 8.71 0 4.42 0 0 Z " fill="#04254E" transform="translate(481,571)"/>
<path d="M0 0 C6 4 6 4 6.73828697 6.52244949 C6.73275621 7.47742702 6.72722546 8.43240456 6.7215271 9.4163208 C6.72977509 10.51565948 6.73802307 11.61499817 6.746521 12.74765015 C6.72494934 13.94886505 6.70337769 15.15007996 6.68115234 16.38769531 C6.68246658 18.29051773 6.68246658 18.29051773 6.68380737 20.23178101 C6.6855287 23.70715051 6.65025961 27.18127712 6.60836363 30.65635777 C6.57085084 34.28913123 6.5673309 37.92193334 6.56021118 41.55487061 C6.5415637 48.43279303 6.49232883 55.31014311 6.43211424 62.18781352 C6.36504538 70.01838973 6.3320593 77.84899331 6.30194163 85.67978525 C6.239229 101.78685853 6.13369685 117.89335623 6 134 C3.03 134.99 3.03 134.99 0 136 C0 91.12 0 46.24 0 0 Z " fill="#031F49" transform="translate(981,601)"/>
<path d="M0 0 C14.52 0 29.04 0 44 0 C44 46.53 44 93.06 44 141 C29.48 141 14.96 141 0 141 C0 94.47 0 47.94 0 0 Z M2 2 C2 47.54 2 93.08 2 140 C15.2 140 28.4 140 42 140 C42 94.46 42 48.92 42 2 C28.8 2 15.6 2 2 2 Z " fill="#01214D" transform="translate(1001,597)"/>
<path d="M0 0 C0.33 0 0.66 0 1 0 C1 31.02 1 62.04 1 94 C0.01 93.67 -0.98 93.34 -2 93 C-3.5335975 89.93280499 -3.13849392 86.72169945 -3.12939453 83.35668945 C-3.13114685 82.56784866 -3.13289917 81.77900787 -3.13470459 80.96626282 C-3.13911884 78.34858015 -3.1361852 75.73096466 -3.1328125 73.11328125 C-3.133486 71.29444872 -3.13445641 69.47561628 -3.13571167 67.65678406 C-3.13718834 63.83766832 -3.13503632 60.01857592 -3.13037109 56.19946289 C-3.12469403 51.31486033 -3.12794012 46.43031297 -3.13394356 41.54571247 C-3.13756728 37.78553354 -3.13640191 34.02536755 -3.13381577 30.26518822 C-3.13315045 28.46514059 -3.13396105 26.66509178 -3.13629532 24.86504555 C-3.13884931 22.34009343 -3.1349418 19.81522885 -3.12939453 17.2902832 C-3.13141876 16.55183167 -3.13344299 15.81338013 -3.13552856 15.05255127 C-3.08709909 3.08709909 -3.08709909 3.08709909 0 0 Z " fill="#052851" transform="translate(552,642)"/>
<path d="M0 0 C21.78 0 43.56 0 66 0 C66 4.29 66 8.58 66 13 C44.22 13 22.44 13 0 13 C0 8.71 0 4.42 0 0 Z M2 2 C2 4.97 2 7.94 2 11 C22.46 11 42.92 11 64 11 C64 8.03 64 5.06 64 2 C43.54 2 23.08 2 2 2 Z " fill="#01204A" transform="translate(481,752)"/>
<path d="M0 0 C3.81248426 -0.02887236 7.6249407 -0.04675492 11.4375 -0.0625 C12.52611328 -0.07087891 13.61472656 -0.07925781 14.73632812 -0.08789062 C15.77080078 -0.09111328 16.80527344 -0.09433594 17.87109375 -0.09765625 C18.82943115 -0.10289307 19.78776855 -0.10812988 20.77514648 -0.11352539 C23 0 23 0 24 1 C24.09439978 3.26991887 24.11742226 5.54281967 24.11352539 7.81469727 C24.11367142 8.52685394 24.11381744 9.23901062 24.1139679 9.9727478 C24.1132687 12.33733112 24.10547606 14.70183661 24.09765625 17.06640625 C24.09579209 18.70165463 24.09436818 20.33690357 24.09336853 21.97215271 C24.08954318 26.28434785 24.07971275 30.59650952 24.06866455 34.90869141 C24.05665627 40.0781968 24.05204827 45.24771336 24.04621124 50.4172287 C24.036501 58.27817577 24.01734458 66.13904935 24 74 C36.54 74 49.08 74 62 74 C62.66 72.68 63.32 71.36 64 70 C63.67 71.98 63.34 73.96 63 76 C49.47 76 35.94 76 22 76 C22 51.25 22 26.5 22 1 C14.74 1 7.48 1 0 1 C0 0.67 0 0.34 0 0 Z " fill="#001A46" transform="translate(415,401)"/>
<path d="M0 0 C2 2 2 2 2.23046875 4.56640625 C2.21628906 5.55511719 2.20210937 6.54382813 2.1875 7.5625 C2.18105469 8.55378906 2.17460938 9.54507813 2.16796875 10.56640625 C2 13 2 13 1 14 C-1.05556661 14.09413687 -3.11440181 14.11742998 -5.17211914 14.11352539 C-6.13794167 14.11374443 -6.13794167 14.11374443 -7.12327576 14.1139679 C-9.26060303 14.11326885 -11.39784413 14.10547691 -13.53515625 14.09765625 C-15.01346285 14.09579204 -16.49177007 14.09436815 -17.97007751 14.09336853 C-21.86798802 14.08954359 -25.76586149 14.07971352 -29.66375732 14.06866455 C-33.63846333 14.05844992 -37.61317529 14.0538708 -41.58789062 14.04882812 C-49.391944 14.03809122 -57.19596682 14.02101509 -65 14 C-65 13.34 -65 12.68 -65 12 C-43.55 12 -22.1 12 0 12 C0 8.04 0 4.08 0 0 Z " fill="#205187" transform="translate(547,753)"/>
<path d="M0 0 C0.66 0 1.32 0 2 0 C0.78109227 3.86973619 -0.66286781 7.54624029 -2.31152344 11.25170898 C-5.40740345 18.3809669 -7.78899599 25.14447276 -6 33 C-4.35093345 36.05645956 -2.4369134 38.53407572 0 41 C0.03738281 40.21496094 0.07476562 39.42992187 0.11328125 38.62109375 C0.50151345 32.41699099 1.11154958 27.52573124 4 22 C5 25 5 25 4.0625 27.0625 C1.89259722 33.06164299 2.70387345 39.84339889 4 46 C-1.69549321 43.15225339 -5.51561676 38.83968967 -8.4375 33.25 C-10.53983466 21.1031775 -4.93441412 10.77925532 0 0 Z " fill="#22548B" transform="translate(419,348)"/>
<path d="M0 0 C0.66 0 1.32 0 2 0 C5.4551359 6.38583153 6.88631604 11.73220845 6 19 C5 22.125 5 22.125 4 24 C3.03996427 21.1198928 2.92154198 19.41400117 3 16.4375 C3.12955645 13.08718018 3.12955645 13.08718018 2 10 C1.64386903 8.33805547 1.30791692 6.671549 1 5 C-1.52480693 7.52480693 -1.55738633 9.13823034 -2.125 12.625 C-2.29257812 13.62789063 -2.46015625 14.63078125 -2.6328125 15.6640625 C-2.75398437 16.43492187 -2.87515625 17.20578125 -3 18 C-3.33 18 -3.66 18 -4 18 C-4.53449652 10.75460274 -3.71607548 6.27087737 0 0 Z " fill="#021D47" transform="translate(583,284)"/>
<path d="M0 0 C1.27918934 2.55837869 0.71595865 3.28512324 0 6 C-0.55652024 11.95750358 -0.77106904 17.32478309 2.64453125 22.4296875 C5.12948178 25.30850627 7.98895775 27.69097041 11 30 C11 28.35 11 26.7 11 25 C11.99 26.32 12.98 27.64 14 29 C13.34 30.32 12.68 31.64 12 33 C5.86827042 30.29764938 1.37325998 25.31737621 -2 19.625 C-3.68271699 13.52515092 -3.93852292 8.26809705 -1.5 2.375 C-1.005 1.59125 -0.51 0.8075 0 0 Z " fill="#021F49" transform="translate(1096,363)"/>
<path d="M0 0 C3.74546784 0.58602558 5.63342264 2.20496945 8.4375 4.6875 C16.19825352 11.03097306 24.46228006 15.81531862 34.69921875 15.078125 C38.36603028 14.95361527 41.50127524 15.96334081 45 17 C45 17.33 45 17.66 45 18 C35.53454591 18.42277462 27.53066646 18.69404645 19 14 C18.17113281 13.55269531 17.34226562 13.10539063 16.48828125 12.64453125 C10.62797361 9.29706609 5.07945403 5.45372418 0 1 C0 0.67 0 0.34 0 0 Z " fill="#021B44" transform="translate(655,532)"/>
<path d="M0 0 C1.47668858 0.0133035 2.95331108 0.03716415 4.4296875 0.0703125 C5.18378906 0.07933594 5.93789063 0.08835937 6.71484375 0.09765625 C8.57826004 0.1212438 10.44151343 0.15711531 12.3046875 0.1953125 C12.6346875 0.8553125 12.9646875 1.5153125 13.3046875 2.1953125 C7.6946875 2.1953125 2.0846875 2.1953125 -3.6953125 2.1953125 C-2.02735104 9.20049027 -2.02735104 9.20049027 0.9296875 15.1953125 C1.37570312 15.9584375 1.82171875 16.7215625 2.28125 17.5078125 C2.61898438 18.0646875 2.95671875 18.6215625 3.3046875 19.1953125 C-0.92402759 17.44886203 -2.01452934 15.39195265 -3.87109375 11.36328125 C-5.03749663 8.29525471 -5.56435621 5.46921974 -5.6953125 2.1953125 C-3.6953125 0.1953125 -3.6953125 0.1953125 0 0 Z " fill="#02204B" transform="translate(401.6953125,474.8046875)"/>
<path d="M0 0 C1 3 1 3 0.06640625 5.015625 C-3.6086891 10.47576667 -7.56950204 15.19620526 -13 19 C-13.66 19 -14.32 19 -15 19 C-15 19.66 -15 20.32 -15 21 C-14.34 21 -13.68 21 -13 21 C-12.34 23.31 -11.68 25.62 -11 28 C-13.97058312 25.23428468 -15.97268271 22.50278604 -18 19 C-17.35933594 18.61070312 -16.71867188 18.22140625 -16.05859375 17.8203125 C-8.79334717 13.12118133 -3.88301725 7.7660345 0 0 Z " fill="#021B44" transform="translate(977,412)"/>
<path d="M0 0 C2.1682057 2.1682057 2.93954961 3.90623172 4.1875 6.6875 C6.69152899 11.82150027 9.77859041 15.22874072 14 19 C15.33333333 20.33333333 16.66666667 21.66666667 18 23 C16.35 24.32 14.7 25.64 13 27 C12.34 26.67 11.68 26.34 11 26 C12.32 25.34 13.64 24.68 15 24 C14.56429688 23.5153125 14.12859375 23.030625 13.6796875 22.53125 C0 7.13419913 0 7.13419913 0 0 Z " fill="#011A44" transform="translate(1011,434)"/>
<path d="M0 0 C0 3 0 3 -1.3203125 4.5078125 C-2.21363281 5.30832031 -2.21363281 5.30832031 -3.125 6.125 C-7.16938269 9.97169392 -10.07324811 14.27217002 -13 19 C-13.33 18.01 -13.66 17.02 -14 16 C-12.7421875 13.94921875 -12.7421875 13.94921875 -10.875 11.6875 C-10.22917969 10.89730469 -9.58335937 10.10710938 -8.91796875 9.29296875 C-8.28503906 8.53628906 -7.65210938 7.77960937 -7 7 C-6.50113281 6.37738281 -6.00226562 5.75476563 -5.48828125 5.11328125 C-2.2877789 1.14388945 -2.2877789 1.14388945 0 0 Z " fill="#21548C" transform="translate(720,626)"/>
<path d="M0 0 C2.34860725 1.17430363 3.55102928 2.4856616 5.1875 4.53125 C5.70828125 5.17191406 6.2290625 5.81257812 6.765625 6.47265625 C7.15234375 6.96636719 7.5390625 7.46007812 7.9375 7.96875 C5.0769109 6.60937915 3.07822301 5.32354531 0.9375 2.96875 C-2.49845166 4.49583963 -5.18162454 6.56802045 -8.0625 8.96875 C-8.7225 8.63875 -9.3825 8.30875 -10.0625 7.96875 C-8.82850937 6.59997884 -7.57469377 5.24905834 -6.3125 3.90625 C-5.61640625 3.15214844 -4.9203125 2.39804687 -4.203125 1.62109375 C-2.0625 -0.03125 -2.0625 -0.03125 0 0 Z " fill="#22548C" transform="translate(883.0625,534.03125)"/>
<path d="M0 0 C4.03089114 0.28507947 6.10348521 1.58533789 9 4.3125 C9.680625 4.93898438 10.36125 5.56546875 11.0625 6.2109375 C11.701875 6.80132813 12.34125 7.39171875 13 8 C14.65651812 9.34592097 16.31806068 10.6859849 18 12 C12.94262907 11.24677454 9.49014857 7.75019612 5.55859375 4.71484375 C3.09801103 2.72162641 3.09801103 2.72162641 0 3 C-0.66 2.67 -1.32 2.34 -2 2 C-1.34 1.34 -0.68 0.68 0 0 Z " fill="#031C46" transform="translate(730,532)"/>
<path d="M0 0 C0 3 0 3 -1.4609375 4.5703125 C-2.09257813 5.08335937 -2.72421875 5.59640625 -3.375 6.125 C-4.00148438 6.64320313 -4.62796875 7.16140625 -5.2734375 7.6953125 C-7 9 -7 9 -9 10 C-8.34 12.31 -7.68 14.62 -7 17 C-9.5 14.6875 -9.5 14.6875 -12 12 C-12 11.01 -12 10.02 -12 9 C-10.13671875 7.5 -10.13671875 7.5 -7.6875 6 C-4.78552031 4.20553913 -2.31515417 2.51744919 0 0 Z " fill="#011A43" transform="translate(604,421)"/>
<path d="M0 0 C0.33 0 0.66 0 1 0 C1.99 4.29 2.98 8.58 4 13 C-0.89088091 10.06547145 -2.65896404 8.29561767 -6 4 C-5.67 3.34 -5.34 2.68 -5 2 C-3.35 3.65 -1.7 5.3 0 7 C0 4.69 0 2.38 0 0 Z " fill="#235890" transform="translate(577,297)"/>
<path d="M0 0 C1.65322266 0.01740234 1.65322266 0.01740234 3.33984375 0.03515625 C4.99693359 0.04869141 4.99693359 0.04869141 6.6875 0.0625 C7.54214844 0.07410156 8.39679688 0.08570313 9.27734375 0.09765625 C8.94734375 0.75765625 8.61734375 1.41765625 8.27734375 2.09765625 C4.97734375 2.09765625 1.67734375 2.09765625 -1.72265625 2.09765625 C-1.39265625 4.07765625 -1.06265625 6.05765625 -0.72265625 8.09765625 C-1.38265625 7.76765625 -2.04265625 7.43765625 -2.72265625 7.09765625 C-3.41015625 4.09765625 -3.41015625 4.09765625 -3.72265625 1.09765625 C-2.72265625 0.09765625 -2.72265625 0.09765625 0 0 Z " fill="#1F548F" transform="translate(1015.72265625,431.90234375)"/>
<path d="M0 0 C2.76315985 2.38636532 3.87271889 4.54041314 5 8 C5.1953125 11.11328125 5.1953125 11.11328125 5.125 14.3125 C5.10695313 15.38113281 5.08890625 16.44976562 5.0703125 17.55078125 C5.03550781 18.76314453 5.03550781 18.76314453 5 20 C4.67 20 4.34 20 4 20 C3.86722656 19.10796875 3.73445313 18.2159375 3.59765625 17.296875 C3.42105469 16.12640625 3.24445313 14.9559375 3.0625 13.75 C2.88847656 12.58984375 2.71445312 11.4296875 2.53515625 10.234375 C2.1272264 7.76893039 1.66098697 5.40575438 1 3 C0.34 3 -0.32 3 -1 3 C-0.67 2.01 -0.34 1.02 0 0 Z " fill="#021A45" transform="translate(499,328)"/>
<path d="M0 0 C4.12116693 3.51062368 6.95072785 8.01959679 9 13 C9.140625 15.78515625 9.140625 15.78515625 9 18 C6.44624385 14.82505993 4.62552847 11.51896339 2.8125 7.875 C2.28269531 6.82054687 1.75289062 5.76609375 1.20703125 4.6796875 C0 2 0 2 0 0 Z " fill="#021E49" transform="translate(827,638)"/>
<path d="M0 0 C4.95 0 9.9 0 15 0 C14.67 2.31 14.34 4.62 14 7 C13.01 7.495 13.01 7.495 12 8 C12.33 5.69 12.66 3.38 13 1 C8.71 1 4.42 1 0 1 C0 0.67 0 0.34 0 0 Z " fill="#275A91" transform="translate(963,407)"/>
<path d="M0 0 C0.33 0 0.66 0 1 0 C1 3.63 1 7.26 1 11 C1.66 11.33 2.32 11.66 3 12 C1.71034824 13.37562854 0.37310707 14.70766393 -1 16 C-1.66 16 -2.32 16 -3 16 C-2.690625 15.030625 -2.38125 14.06125 -2.0625 13.0625 C-0.82032903 8.76335509 -0.38315147 4.44657366 0 0 Z " fill="#255890" transform="translate(957,294)"/>
<path d="M0 0 C2 0 2 0 4.3125 2.1875 C5.199375 3.115625 6.08625 4.04375 7 5 C7.928125 5.886875 8.85625 6.77375 9.8125 7.6875 C12 10 12 10 12 12 C11.34 12 10.68 12 10 12 C8.80577177 10.54038771 7.61396623 9.07863806 6.44140625 7.6015625 C4.25630272 5.17366969 1.78610239 3.68462005 -1 2 C-0.67 1.34 -0.34 0.68 0 0 Z " fill="#021C45" transform="translate(508,455)"/>
<path d="M0 0 C0.33 0.99 0.66 1.98 1 3 C-0.43359375 5.26171875 -0.43359375 5.26171875 -2.4375 7.6875 C-3.09621094 8.49574219 -3.75492188 9.30398438 -4.43359375 10.13671875 C-4.95050781 10.75160156 -5.46742188 11.36648438 -6 12 C-6.66 11.67 -7.32 11.34 -8 11 C-7.525625 10.608125 -7.05125 10.21625 -6.5625 9.8125 C-4.64820367 7.59191626 -4.38733012 5.86624291 -4 3 C-3.01 3 -2.02 3 -1 3 C-0.67 2.01 -0.34 1.02 0 0 Z " fill="#20538B" transform="translate(607,413)"/>
<path d="M0 0 C1.1446875 1.175625 1.1446875 1.175625 2.3125 2.375 C4.90891805 5.07257717 4.90891805 5.07257717 8 7 C8.33 6.34 8.66 5.68 9 5 C9.66 6.98 10.32 8.96 11 11 C5.84563204 9.63560848 2.93351599 6.27426385 0 2 C0 1.34 0 0.68 0 0 Z " fill="#22548A" transform="translate(1022,342)"/>
<path d="M0 0 C0.33 0 0.66 0 1 0 C1.13277344 0.91523438 1.26554687 1.83046875 1.40234375 2.7734375 C1.57894531 3.96195312 1.75554687 5.15046875 1.9375 6.375 C2.11152344 7.55835938 2.28554688 8.74171875 2.46484375 9.9609375 C2.83462786 12.90702381 2.83462786 12.90702381 4 15 C0.34683329 13.75023244 -0.78065836 13.32901247 -3 10 C-2.34 10 -1.68 10 -1 10 C-0.67 6.7 -0.34 3.4 0 0 Z " fill="#265992" transform="translate(493,338)"/>
<path d="M0 0 C0.33 0 0.66 0 1 0 C1.14285714 7.42857143 1.14285714 7.42857143 0 11 C0.66 11.33 1.32 11.66 2 12 C0.625 13.5 0.625 13.5 -1 15 C-1.66 15 -2.32 15 -3 15 C-2.01 10.05 -1.02 5.1 0 0 Z " fill="#23568D" transform="translate(432,379)"/>
<path d="M0 0 C0.99 0.66 1.98 1.32 3 2 C3 2.66 3 3.32 3 4 C3.99 4.33 4.98 4.66 6 5 C3.56159764 7.43840236 1.14759102 8.62292893 -2 10 C-2.66 9.67 -3.32 9.34 -4 9 C-0.25 6 -0.25 6 2 6 C1.34 4.02 0.68 2.04 0 0 Z " fill="#021C45" transform="translate(571,450)"/>
<path d="M0 0 C0.99 0.33 1.98 0.66 3 1 C0.19195732 3.96404505 -2.18315774 6.44499019 -6 8 C-6 7.01 -6 6.02 -6 5 C-3.1875 2.25 -3.1875 2.25 0 0 Z " fill="#022049" transform="translate(817,727)"/>
<path d="M0 0 C0.66 0.33 1.32 0.66 2 1 C-1.82180842 5.4008703 -4.47371099 6.80805531 -10 8 C-6.97727468 4.74475735 -3.74281699 2.38179263 0 0 Z " fill="#21558C" transform="translate(578,537)"/>
<path d="M0 0 C-1.40453643 0.89434157 -2.82421869 1.76493192 -4.25 2.625 C-5.03890625 3.11226562 -5.8278125 3.59953125 -6.640625 4.1015625 C-9 5 -9 5 -11.296875 4.1484375 C-11.85890625 3.76945313 -12.4209375 3.39046875 -13 3 C-11.21189234 2.30329584 -9.41937948 1.61788811 -7.625 0.9375 C-6.62726562 0.55464844 -5.62953125 0.17179688 -4.6015625 -0.22265625 C-2 -1 -2 -1 0 0 Z " fill="#22558C" transform="translate(794,730)"/>
<path d="M0 0 C2 0 2 0 4.5 2.4375 C5.325 3.283125 6.15 4.12875 7 5 C7.66 5.33 8.32 5.66 9 6 C8.67 6.99 8.34 7.98 8 9 C6.66079162 7.88200014 5.32877444 6.75538103 4 5.625 C2.88625 4.68527344 2.88625 4.68527344 1.75 3.7265625 C1.1725 3.15679687 0.595 2.58703125 0 2 C0 1.34 0 0.68 0 0 Z " fill="#245991" transform="translate(1099,385)"/>
<path d="M0 0 C2.89932357 2.39509338 3.50168276 4.31245243 4 8 C2 7 2 7 1 4 C0.01 4.99 -0.98 5.98 -2 7 C-1.125 1.125 -1.125 1.125 0 0 Z " fill="#021C43" transform="translate(1110,368)"/>
<path d="M0 0 C0 3.99476331 -1.28869085 5.1421336 -4 8 C-6.75 9.3125 -6.75 9.3125 -9 10 C-7.71937515 8.2925002 -6.38232443 6.62626404 -5 5 C-4.34 5 -3.68 5 -3 5 C-2.690625 4.360625 -2.38125 3.72125 -2.0625 3.0625 C-1 1 -1 1 0 0 Z " fill="#021D47" transform="translate(964,301)"/>
<path d="M0 0 C6.42857143 4.14285714 6.42857143 4.14285714 9 7 C8.67 7.66 8.34 8.32 8 9 C6.66079162 7.88200014 5.32877444 6.75538103 4 5.625 C2.88625 4.68527344 2.88625 4.68527344 1.75 3.7265625 C1.1725 3.15679687 0.595 2.58703125 0 2 C0 1.34 0 0.68 0 0 Z " fill="#245990" transform="translate(940,301)"/>
<path d="M0 0 C0 3 0 3 -1.3125 4.38671875 C-2.875 5.59114583 -4.4375 6.79557292 -6 8 C-6.66 7.67 -7.32 7.34 -8 7 C-5.87696444 3.81544666 -4.26504948 2.84182279 -1 1 C-0.67 0.67 -0.34 0.34 0 0 Z " fill="#21548C" transform="translate(971,420)"/>
<path d="M0 0 C0 3 0 3 -1.875 5.1875 C-4 7 -4 7 -6 7 C-5.67 5.02 -5.34 3.04 -5 1 C-4.34 1.66 -3.68 2.32 -3 3 C-2.01 2.01 -1.02 1.02 0 0 Z " fill="#285A91" transform="translate(509,346)"/>
<path d="M0 0 C0.33 0 0.66 0 1 0 C1 1.98 1 3.96 1 6 C1.99 6.33 2.98 6.66 4 7 C3.34 8.32 2.68 9.64 2 11 C-0.67927341 6.98108988 -0.15601248 4.75838077 0 0 Z " fill="#114279" transform="translate(504,339)"/>
<path d="M0 0 C0.66 1.32 1.32 2.64 2 4 C0.35 5.32 -1.3 6.64 -3 8 C-2.25 2.25 -2.25 2.25 0 0 Z " fill="#021C45" transform="translate(426,368)"/>
</svg>
